# Blender v2.77 (sub 0) OBJ File: 'mine1.blend'
# www.blender.org
mtllib mine1.mtl
o Plane.002
v -0.822726 6.619426 -2.306216
v 0.922608 6.619426 -2.306216
v -0.822726 6.988110 -2.369611
v 0.922608 6.988110 -2.369611
v 0.758213 7.354108 -2.432543
v 0.947755 7.354108 -2.432543
v 0.758212 -3.036053 -0.645990
v 0.947755 -3.036053 -0.645990
v -0.860526 7.354108 -2.432543
v -0.670984 7.354108 -2.432543
v -0.860527 -3.036053 -0.645990
v -0.670984 -3.036053 -0.645990
v -0.822726 5.539570 -2.120539
v 0.922608 5.539570 -2.120539
v -0.822726 5.908254 -2.183933
v 0.922608 5.908254 -2.183933
v -0.822726 4.335667 -1.913532
v 0.922608 4.335667 -1.913532
v -0.822726 4.704351 -1.976926
v 0.922608 4.704351 -1.976926
v -0.822727 3.025229 -1.688206
v 0.922608 3.025229 -1.688206
v -0.822727 3.393913 -1.751601
v 0.922608 3.393913 -1.751601
v -0.822727 1.768300 -1.472082
v 0.922608 1.768300 -1.472082
v -0.822727 2.136983 -1.535476
v 0.922608 2.136983 -1.535476
v -0.822727 0.493979 -1.252967
v 0.922608 0.493979 -1.252967
v -0.822727 0.862663 -1.316361
v 0.922608 0.862663 -1.316361
v -0.822727 -0.921990 -1.009496
v 0.922608 -0.921990 -1.009496
v -0.822727 -0.553306 -1.072890
v 0.922608 -0.553306 -1.072890
v -0.822727 -2.250026 -0.781145
v 0.922608 -2.250026 -0.781145
v -0.822727 -1.881342 -0.844539
v 0.922608 -1.881342 -0.844539
vn 0.0000 0.1695 0.9855
vn 0.0000 -0.1695 -0.9855
usemtl Material.001
s off
f 1//1 2//1 4//1 3//1
f 5//2 6//2 8//2 7//2
f 9//2 10//2 12//2 11//2
f 13//1 14//1 16//1 15//1
f 17//1 18//1 20//1 19//1
f 21//1 22//1 24//1 23//1
f 25//1 26//1 28//1 27//1
f 29//1 30//1 32//1 31//1
f 33//1 34//1 36//1 35//1
f 37//1 38//1 40//1 39//1
o Cube
v 1.612549 0.150738 -1.612549
v 1.612549 0.150738 1.612549
v -1.612549 0.150738 1.612549
v -1.612549 0.150738 -1.612550
v 1.612550 2.177115 -1.612548
v 1.612548 2.177115 1.612550
v -1.612550 2.177115 1.612549
v -1.612549 2.177115 -1.612549
v 0.000000 0.150738 -2.416540
v 0.000000 0.150738 2.416539
v 0.000000 2.177115 -2.416539
v -0.000001 2.177115 2.416540
v 2.277947 0.150738 0.000000
v -2.277947 0.150738 -0.000000
v 2.277947 2.177115 0.000001
v -2.277947 2.177115 -0.000000
v 0.000000 0.150738 -0.000000
v 2.644539 -0.061539 -2.693676
v 2.644539 -0.061539 2.619970
v -2.669108 -0.061539 2.619970
v -2.669106 -0.061539 -2.693677
v 2.311810 2.372472 -2.360945
v 2.311807 2.372472 2.287241
v -2.336378 2.372472 2.287239
v -2.336377 2.372472 -2.360946
v -0.012284 -0.061539 -4.018325
v -0.012284 -0.061539 3.944618
v -0.012284 2.372472 -3.519700
v -0.012286 2.372472 3.445995
v 3.740843 -0.061539 -0.036853
v -3.765412 -0.061539 -0.036854
v 3.270815 2.372472 -0.036852
v -3.295385 2.372472 -0.036854
v -0.806274 0.150738 -2.014545
v -0.806275 0.150738 2.014544
v -0.806274 2.177115 -2.014544
v -0.806275 2.177115 2.014544
v -1.138973 0.150738 -0.000000
v -1.453987 -0.061539 -3.670578
v -1.453988 -0.061539 3.596871
v -1.273434 2.372472 -3.215503
v -1.273436 2.372472 3.141797
v 0.806275 0.150738 -2.014545
v 0.806275 0.150738 2.014544
v 0.806275 2.177115 -2.014544
v 0.806274 2.177115 2.014545
v 1.138974 0.150738 -0.000000
v 1.429420 -0.061539 -3.670578
v 1.429419 -0.061539 3.596871
v 1.248867 2.372472 -3.215503
v 1.248865 2.372472 3.141798
v 1.945248 0.150738 0.806275
v 1.945248 2.177115 0.806275
v -1.945248 0.150738 0.806274
v -1.945248 2.177115 0.806274
v 0.000000 0.150738 1.208270
v 3.466024 -0.061539 1.417461
v 3.030413 2.372472 1.235329
v -3.490593 -0.061539 1.417460
v -3.054984 2.372472 1.235327
v -0.972624 0.150738 1.007272
v 0.972624 0.150738 1.007272
v -1.945248 0.150738 -0.806275
v -1.945248 2.177115 -0.806275
v 0.000000 0.150738 -1.208270
v 1.945248 0.150738 -0.806274
v 1.945248 2.177115 -0.806274
v -3.490592 -0.061539 -1.491168
v -3.054983 2.372472 -1.309034
v 3.466024 -0.061539 -1.491166
v 3.030415 2.372472 -1.309033
v -0.972624 0.150738 -1.007273
v 0.972624 0.150738 -1.007272
vn 0.8112 0.1866 0.5542
vn -0.6153 0.1887 0.7654
vn -0.8112 0.1866 -0.5542
vn -0.6153 0.1887 -0.7654
vn 0.2300 0.1953 -0.9534
vn 0.2300 0.1953 0.9534
vn -0.9654 0.1864 0.1824
vn 0.9654 0.1864 -0.1824
vn -0.2300 0.1953 -0.9534
vn -0.2300 0.1953 0.9534
vn 0.6153 0.1887 0.7654
vn 0.6153 0.1887 -0.7654
vn -0.8112 0.1866 0.5542
vn 0.9654 0.1864 0.1824
vn 0.8112 0.1866 -0.5542
vn -0.9654 0.1864 -0.1824
vn 0.0000 -1.0000 0.0000
vn 0.1304 -0.9908 0.0350
vn 0.1191 -0.9905 -0.0684
vn -0.1340 -0.9903 -0.0360
vn -0.0771 -0.9906 -0.1131
vn 0.0421 -0.9911 -0.1263
vn 0.0736 -0.9914 0.1079
vn -0.0406 -0.9917 0.1216
vn -0.1179 -0.9907 0.0677
vn 0.0404 -0.9918 0.1211
vn 0.0765 -0.9908 -0.1121
vn -0.0743 -0.9913 0.1089
vn -0.0423 -0.9910 -0.1270
vn -0.1207 -0.9903 -0.0694
vn 0.1320 -0.9906 -0.0355
vn -0.1323 -0.9906 0.0356
vn 0.1163 -0.9910 0.0668
vn 0.0533 0.9863 0.1561
vn 0.1720 0.9840 -0.0474
vn 0.1514 0.9848 0.0857
vn -0.0570 0.9843 -0.1669
vn -0.0953 0.9853 0.1417
vn 0.0993 0.9840 -0.1477
vn -0.1726 0.9838 0.0476
vn -0.1595 0.9831 -0.0902
vn 0.0566 0.9845 -0.1658
vn 0.0941 0.9857 0.1400
vn -0.0537 0.9861 0.1572
vn -0.1005 0.9836 -0.1496
vn -0.1757 0.9832 -0.0485
vn 0.1564 0.9837 -0.0885
vn -0.1543 0.9842 0.0873
vn 0.1690 0.9845 0.0466
usemtl Material.002
s off
f 97//3 98//3 63//3 59//3
f 80//4 82//4 64//4 60//4
f 108//5 109//5 65//5 61//5
f 81//6 79//6 61//6 65//6
f 90//7 88//7 66//7 68//7
f 89//8 91//8 69//8 67//8
f 99//9 100//9 73//9 71//9
f 110//10 111//10 72//10 70//10
f 68//11 66//11 79//11 81//11
f 67//12 69//12 82//12 80//12
f 59//13 63//13 91//13 89//13
f 62//14 58//14 88//14 90//14
f 60//15 64//15 100//15 99//15
f 70//16 72//16 98//16 97//16
f 58//17 62//17 111//17 110//17
f 71//18 73//18 109//18 108//18
usemtl Material.003
f 101//19 75//19 43//19 94//19
f 103//20 54//20 71//20 108//20
f 94//21 43//21 60//21 99//21
f 92//22 53//22 70//22 97//22
f 102//19 84//19 50//19 96//19
f 113//19 87//19 57//19 105//19
f 84//23 42//23 59//23 89//23
f 112//19 78//19 54//19 103//19
f 75//24 50//24 67//24 80//24
f 74//25 44//25 61//25 79//25
f 83//26 49//26 66//26 88//26
f 106//27 41//27 58//27 110//27
f 49//28 74//28 79//28 66//28
f 43//29 75//29 80//29 60//29
f 105//19 57//19 78//19 112//19
f 96//19 50//19 75//19 101//19
f 41//30 83//30 88//30 58//30
f 50//31 84//31 89//31 67//31
f 106//19 53//19 87//19 113//19
f 92//19 42//19 84//19 102//19
f 53//19 92//19 102//19 87//19
f 57//19 96//19 101//19 78//19
f 87//19 102//19 96//19 57//19
f 42//32 92//32 97//32 59//32
f 54//33 94//33 99//33 71//33
f 78//19 101//19 94//19 54//19
f 41//19 106//19 113//19 83//19
f 49//19 105//19 112//19 74//19
f 53//34 106//34 110//34 70//34
f 74//19 112//19 103//19 44//19
f 83//19 113//19 105//19 49//19
f 44//35 103//35 108//35 61//35
usemtl Material.004
f 76//36 51//36 68//36 81//36
f 95//37 56//37 73//37 100//37
f 104//38 48//38 65//38 109//38
f 86//39 52//39 69//39 91//39
f 85//40 45//40 62//40 90//40
f 77//41 47//41 64//41 82//41
f 107//42 55//42 72//42 111//42
f 93//43 46//43 63//43 98//43
f 52//44 77//44 82//44 69//44
f 48//45 76//45 81//45 65//45
f 51//46 85//46 90//46 68//46
f 46//47 86//47 91//47 63//47
f 55//48 93//48 98//48 72//48
f 47//49 95//49 100//49 64//49
f 45//50 107//50 111//50 62//50
f 56//51 104//51 109//51 73//51
