# Blender v2.77 (sub 0) OBJ File: 'farm.blend'
# www.blender.org
mtllib farm.mtl
o Plane.001
v -0.53460914 0.012541223 -0.3676195
v -0.39137885 0.012541223 -0.3676195
v -0.53460914 0.012541223 -0.5108498
v -0.39137885 0.012541223 -0.5108498
vn 0.0000 1.0000 0.0000
usemtl Material.001
s off
f 1//1 2//1 4//1 3//1
o Plane
v -0.62655854 0.008165079 0.70698637
v 0.70717996 0.008165079 0.70698637
v -0.62655854 0.008165079 -0.62675214
v 0.70717996 0.008165079 -0.62675214
v -0.4672508 0.008165079 0.70698637
v -0.3190577 -0.0863205 0.70698637
v -0.17086452 0.008165079 0.70698637
v -0.02267131 -0.0863205 0.70698637
v 0.12552178 0.008165079 0.70698637
v 0.273715 -0.0863205 0.70698637
v 0.42190817 0.008165079 0.70698637
v 0.57010126 -0.0863205 0.70698637
v 0.57010126 -0.0863205 -0.62675214
v 0.42190817 0.008165079 -0.62675214
v 0.273715 -0.0863205 -0.62675214
v 0.12552178 0.008165079 -0.62675214
v -0.022671422 -0.0863205 -0.62675214
v -0.17086452 0.008165079 -0.62675214
v -0.3190577 -0.0863205 -0.62675214
v -0.4672508 0.008165079 -0.62675214
vn -0.5675 0.8234 0.0000
vn 0.0000 1.0000 0.0000
vn 0.5376 0.8432 0.0000
vn -0.5376 0.8432 0.0000
usemtl Material.002
s off
f 16//2 6//2 8//2 17//2
f 5//3 9//3 24//3 7//3
f 9//4 10//4 23//4 24//4
f 10//5 11//5 22//5 23//5
f 11//4 12//4 21//4 22//4
f 12//5 13//5 20//5 21//5
f 13//4 14//4 19//4 20//4
f 14//5 15//5 18//5 19//5
f 15//4 16//4 17//4 18//4
o Plane.002
v -0.53460914 0.012541223 -0.096876286
v -0.39137885 0.012541223 -0.096876286
v -0.53460914 0.012541223 -0.24010657
v -0.39137885 0.012541223 -0.24010657
vn 0.0000 1.0000 0.0000
usemtl Material.001
s off
f 25//6 26//6 28//6 27//6
o Plane.003
v -0.53460914 0.012541223 0.18365334
v -0.39137885 0.012541223 0.18365334
v -0.53460914 0.012541223 0.04042306
v -0.39137885 0.012541223 0.04042306
vn 0.0000 1.0000 0.0000
usemtl Material.001
s off
f 29//7 30//7 32//7 31//7
o Plane.004
v -0.53460914 0.012541223 0.50332344
v -0.39137885 0.012541223 0.50332344
v -0.53460914 0.012541223 0.3600931
v -0.39137885 0.012541223 0.3600931
vn 0.0000 1.0000 0.0000
usemtl Material.001
s off
f 33//8 34//8 36//8 35//8
o Plane.005
v -0.23938702 0.008165079 0.50332344
v -0.096156724 0.008165079 0.50332344
v -0.23938702 0.008165079 0.3600931
v -0.096156724 0.008165079 0.3600931
vn 0.0000 1.0000 0.0000
usemtl Material.001
s off
f 37//9 38//9 40//9 39//9
o Plane.006
v -0.23938702 0.008165079 0.18530315
v -0.096156724 0.008165079 0.18530315
v -0.23938702 0.008165079 0.04207287
v -0.096156724 0.008165079 0.04207287
vn 0.0000 1.0000 0.0000
usemtl Material.001
s off
f 41//10 42//10 44//10 43//10
o Plane.007
v -0.23938702 0.008165079 -0.08449319
v -0.096156724 0.008165079 -0.08449319
v -0.23938702 0.008165079 -0.22772348
v -0.096156724 0.008165079 -0.22772348
vn 0.0000 1.0000 0.0000
usemtl Material.001
s off
f 45//11 46//11 48//11 47//11
o Plane.008
v -0.23938702 0.008165079 -0.3705462
v -0.096156724 0.008165079 -0.3705462
v -0.23938702 0.008165079 -0.5137764
v -0.096156724 0.008165079 -0.5137764
vn 0.0000 1.0000 0.0000
usemtl Material.001
s off
f 49//12 50//12 52//12 51//12
o Plane.009
v 0.060782056 0.008165079 -0.3705462
v 0.20401223 0.008165079 -0.3705462
v 0.060782056 0.008165079 -0.5137764
v 0.20401223 0.008165079 -0.5137764
vn 0.0000 1.0000 0.0000
usemtl Material.001
s off
f 53//13 54//13 56//13 55//13
o Plane.010
v 0.060782056 0.008165079 -0.085793614
v 0.20401223 0.008165079 -0.085793614
v 0.060782056 0.008165079 -0.22902377
v 0.20401223 0.008165079 -0.22902377
vn 0.0000 1.0000 0.0000
usemtl Material.001
s off
f 57//14 58//14 60//14 59//14
o Plane.011
v 0.060782056 0.008165079 0.19417647
v 0.20401223 0.008165079 0.19417647
v 0.060782056 0.008165079 0.0509462
v 0.20401223 0.008165079 0.0509462
vn 0.0000 1.0000 0.0000
usemtl Material.001
s off
f 61//15 62//15 64//15 63//15
o Plane.012
v 0.060782056 0.008165079 0.50247025
v 0.20401223 0.008165079 0.50247025
v 0.060782056 0.008165079 0.35924003
v 0.20401223 0.008165079 0.35924003
vn 0.0000 1.0000 0.0000
usemtl Material.001
s off
f 65//16 66//16 68//16 67//16
o Plane.013
v 0.36525056 0.008165079 0.50247025
v 0.5084808 0.008165079 0.50247025
v 0.36525056 0.008165079 0.35924003
v 0.5084808 0.008165079 0.35924003
vn 0.0000 1.0000 0.0000
usemtl Material.001
s off
f 69//17 70//17 72//17 71//17
o Plane.014
v 0.36525056 0.008165079 0.20339161
v 0.5084808 0.008165079 0.20339161
v 0.36525056 0.008165079 0.06016133
v 0.5084808 0.008165079 0.06016133
vn 0.0000 1.0000 0.0000
usemtl Material.001
s off
f 73//18 74//18 76//18 75//18
o Plane.015
v 0.36525056 0.008165079 -0.07966694
v 0.5084808 0.008165079 -0.07966694
v 0.36525056 0.008165079 -0.22289723
v 0.5084808 0.008165079 -0.22289723
vn 0.0000 1.0000 0.0000
usemtl Material.001
s off
f 77//19 78//19 80//19 79//19
o Plane.016
v 0.36525056 0.008165079 -0.37731346
v 0.5084808 0.008165079 -0.37731346
v 0.36525056 0.008165079 -0.5205437
v 0.5084808 0.008165079 -0.5205437
vn 0.0000 1.0000 0.0000
usemtl Material.001
s off
f 81//20 82//20 84//20 83//20
