# Blender v2.77 (sub 0) OBJ File: 'farm.blend'
# www.blender.org
mtllib farm.mtl
o Plane.001
v -5.148752 0.039191 -3.651526
v -3.866039 0.039191 -3.651526
v -5.148752 0.039191 -4.934239
v -3.866039 0.039191 -4.934239
vn 0.0000 1.0000 0.0000
usemtl Material.001
s off
f 1//1 2//1 4//1 3//1
o Plane
v -5.972214 0.000000 5.972214
v 5.972214 0.000000 5.972214
v -5.972214 0.000000 -5.972214
v 5.972214 0.000000 -5.972214
v -4.545518 0.000000 5.972214
v -3.218360 -0.846175 5.972214
v -1.891201 0.000000 5.972214
v -0.564042 -0.846175 5.972214
v 0.763116 0.000000 5.972214
v 2.090275 -0.846175 5.972214
v 3.417434 0.000000 5.972214
v 4.744592 -0.846175 5.972214
v 4.744592 -0.846175 -5.972214
v 3.417434 0.000000 -5.972214
v 2.090275 -0.846175 -5.972214
v 0.763116 0.000000 -5.972214
v -0.564043 -0.846175 -5.972214
v -1.891201 0.000000 -5.972214
v -3.218360 -0.846175 -5.972214
v -4.545518 0.000000 -5.972214
vn -0.5675 0.8234 0.0000
vn 0.0000 1.0000 0.0000
vn 0.5376 0.8432 0.0000
vn -0.5376 0.8432 0.0000
usemtl Material.002
s off
f 16//2 6//2 8//2 17//2
f 5//3 9//3 24//3 7//3
f 9//4 10//4 23//4 24//4
f 10//5 11//5 22//5 23//5
f 11//4 12//4 21//4 22//4
f 12//5 13//5 20//5 21//5
f 13//4 14//4 19//4 20//4
f 14//5 15//5 18//5 19//5
f 15//4 16//4 17//4 18//4
o Plane.002
v -5.148752 0.039191 -1.226858
v -3.866039 0.039191 -1.226858
v -5.148752 0.039191 -2.509571
v -3.866039 0.039191 -2.509571
vn 0.0000 1.0000 0.0000
usemtl Material.001
s off
f 25//6 26//6 28//6 27//6
o Plane.003
v -5.148752 0.039191 1.285453
v -3.866039 0.039191 1.285453
v -5.148752 0.039191 0.002740
v -3.866039 0.039191 0.002740
vn 0.0000 1.0000 0.0000
usemtl Material.001
s off
f 29//7 30//7 32//7 31//7
o Plane.004
v -5.148752 0.039191 4.148290
v -3.866039 0.039191 4.148290
v -5.148752 0.039191 2.865577
v -3.866039 0.039191 2.865577
vn 0.0000 1.0000 0.0000
usemtl Material.001
s off
f 33//8 34//8 36//8 35//8
o Plane.005
v -2.504861 0.000000 4.148290
v -1.222148 0.000000 4.148290
v -2.504861 0.000000 2.865577
v -1.222148 0.000000 2.865577
vn 0.0000 1.0000 0.0000
usemtl Material.001
s off
f 37//9 38//9 40//9 39//9
o Plane.006
v -2.504861 0.000000 1.300228
v -1.222148 0.000000 1.300228
v -2.504861 0.000000 0.017515
v -1.222148 0.000000 0.017515
vn 0.0000 1.0000 0.0000
usemtl Material.001
s off
f 41//10 42//10 44//10 43//10
o Plane.007
v -2.504861 0.000000 -1.115960
v -1.222148 0.000000 -1.115960
v -2.504861 0.000000 -2.398673
v -1.222148 0.000000 -2.398673
vn 0.0000 1.0000 0.0000
usemtl Material.001
s off
f 45//11 46//11 48//11 47//11
o Plane.008
v -2.504861 0.000000 -3.677736
v -1.222148 0.000000 -3.677736
v -2.504861 0.000000 -4.960449
v -1.222148 0.000000 -4.960449
vn 0.0000 1.0000 0.0000
usemtl Material.001
s off
f 49//12 50//12 52//12 51//12
o Plane.009
v 0.183333 0.000000 -3.677736
v 1.466045 0.000000 -3.677736
v 0.183333 0.000000 -4.960449
v 1.466045 0.000000 -4.960449
vn 0.0000 1.0000 0.0000
usemtl Material.001
s off
f 53//13 54//13 56//13 55//13
o Plane.010
v 0.183333 0.000000 -1.127606
v 1.466045 0.000000 -1.127606
v 0.183333 0.000000 -2.410318
v 1.466045 0.000000 -2.410318
vn 0.0000 1.0000 0.0000
usemtl Material.001
s off
f 57//14 58//14 60//14 59//14
o Plane.011
v 0.183333 0.000000 1.379694
v 1.466045 0.000000 1.379694
v 0.183333 0.000000 0.096981
v 1.466045 0.000000 0.096981
vn 0.0000 1.0000 0.0000
usemtl Material.001
s off
f 61//15 62//15 64//15 63//15
o Plane.012
v 0.183333 0.000000 4.140650
v 1.466045 0.000000 4.140650
v 0.183333 0.000000 2.857937
v 1.466045 0.000000 2.857937
vn 0.0000 1.0000 0.0000
usemtl Material.001
s off
f 65//16 66//16 68//16 67//16
o Plane.013
v 2.910031 0.000000 4.140650
v 4.192744 0.000000 4.140650
v 2.910031 0.000000 2.857937
v 4.192744 0.000000 2.857937
vn 0.0000 1.0000 0.0000
usemtl Material.001
s off
f 69//17 70//17 72//17 71//17
o Plane.014
v 2.910031 0.000000 1.462221
v 4.192744 0.000000 1.462221
v 2.910031 0.000000 0.179508
v 4.192744 0.000000 0.179508
vn 0.0000 1.0000 0.0000
usemtl Material.001
s off
f 73//18 74//18 76//18 75//18
o Plane.015
v 2.910031 0.000000 -1.072738
v 4.192744 0.000000 -1.072738
v 2.910031 0.000000 -2.355451
v 4.192744 0.000000 -2.355451
vn 0.0000 1.0000 0.0000
usemtl Material.001
s off
f 77//19 78//19 80//19 79//19
o Plane.016
v 2.910031 0.000000 -3.738341
v 4.192744 0.000000 -3.738341
v 2.910031 0.000000 -5.021054
v 4.192744 0.000000 -5.021054
vn 0.0000 1.0000 0.0000
usemtl Material.001
s off
f 81//20 82//20 84//20 83//20
