# Blender v2.77 (sub 0) OBJ File: 'archerytower1d.blend'
# www.blender.org
mtllib archerytower1d.mtl
o Cube.002
v -0.108645 10.441076 -1.064110
v -1.633851 9.147342 -1.064110
v -0.707913 8.055738 -2.460907
v 0.255006 8.466450 -2.763088
v -1.071565 10.030366 -0.761928
v -1.557355 8.273720 -1.762508
v -0.952188 9.889632 -2.624187
v 1.026617 9.102695 0.734409
v -0.498588 7.808961 0.734409
v 0.427350 6.717357 -0.662388
v 1.390269 7.128068 -0.964570
v 0.063698 8.691985 1.036591
v -0.422093 6.935338 0.036010
v 0.458986 9.771886 -0.164851
v -1.066219 8.478152 -0.164851
v -0.140282 7.386548 -1.561647
v 0.822638 7.797259 -1.863829
v -0.503933 9.361176 0.137331
v -0.989724 7.604529 -0.863249
v 0.175170 10.106481 -0.614480
v -1.350035 8.812747 -0.614481
v -0.424097 7.721144 -2.011277
v -0.455423 8.389724 -3.182698
v -1.783613 9.955549 -1.179096
v -1.524081 8.276081 -2.592707
v 0.443913 9.152573 -3.182698
v -0.884278 10.718399 -1.179096
v 0.538822 8.131854 -2.313459
v -1.011877 9.959999 -1.693058
v -2.070060 8.919744 -1.769087
v -0.348591 9.178041 -2.693638
v -0.105696 10.056364 -2.193347
v -1.254772 9.081676 -2.193348
v -0.220118 9.026581 0.586961
v -0.705908 7.269934 -0.413620
v 2.069172 8.610027 -0.471716
v -0.731246 7.341393 0.351903
v 0.454536 9.140048 0.941895
v 0.908810 6.922712 -0.813479
v -0.185268 6.697730 -0.471717
v -0.444800 8.377198 0.941895
v 0.742802 9.437290 0.284779
v -0.782403 8.143557 0.284779
v 0.143534 7.051952 -1.112017
v 1.106454 7.462663 -1.414199
v -0.787749 9.695770 -0.312298
v -1.273540 7.939124 -1.312879
v 0.213983 7.600548 -2.122203
v -1.400653 8.130569 -0.708592
v -0.214871 9.929223 -0.118600
v -0.854674 7.486905 -1.532212
v -1.114207 9.166374 -0.118601
v -0.779503 8.771786 0.411647
v -0.519971 7.092318 -1.001964
v 0.778616 8.757986 -2.652450
v -0.120720 7.995135 -2.652450
v -0.740613 8.671385 -2.402673
v -1.735356 8.525156 -1.238840
v 0.215227 9.482162 -2.402672
v -0.347900 10.146042 -1.553183
v -0.549574 10.323811 -0.648848
v -1.189378 7.881493 -2.062459
v -1.448910 9.560962 -0.648848
v -1.303740 9.335264 -1.553183
vn -0.8718 -0.0931 0.4810
vn -0.1392 -0.8345 -0.5331
vn -0.4597 0.5486 0.6984
vn -0.7831 -0.6211 0.0321
vn -0.2425 -0.8453 -0.4760
vn -0.4662 0.5430 0.6984
vn -0.7409 -0.6709 -0.0316
vn 0.4551 -0.5524 -0.6984
vn -0.2425 -0.8454 -0.4760
vn 0.4707 -0.5392 -0.6984
vn -0.8489 -0.0099 0.5285
vn 0.2304 0.8447 0.4832
vn -0.8133 0.4411 -0.3795
vn -0.6789 0.4868 -0.5497
vn 0.3052 0.4062 -0.8613
vn -0.6722 0.4968 -0.5489
vn -0.4505 -0.2349 -0.8613
vn -0.1876 0.5360 -0.8231
vn -0.4871 0.0566 -0.8715
vn -0.4989 0.2724 -0.8227
vn -0.1773 0.9751 -0.1334
vn -0.3702 0.7491 -0.5494
vn -0.9331 0.3340 -0.1334
vn -0.4863 0.2794 -0.8279
usemtl Material.001
s off
f 63//1 24//1 2//1 21//1
f 62//2 25//2 3//2 22//2
f 61//3 27//3 5//3 46//3
f 58//4 30//4 6//4 47//4
f 56//5 48//5 16//5 22//5
f 54//2 51//2 16//2 44//2
f 53//1 52//1 15//1 43//1
f 41//1 53//1 43//1 9//1
f 12//6 34//6 53//6 41//6
f 34//6 18//6 52//6 53//6
f 40//2 54//2 44//2 10//2
f 13//7 35//7 54//7 40//7
f 35//7 19//7 51//7 54//7
f 26//8 55//8 28//8 4//8
f 23//9 56//9 22//9 3//9
f 4//10 28//10 56//10 23//10
f 28//10 17//10 48//10 56//10
f 49//4 58//4 47//4 19//4
f 15//11 21//11 58//11 49//11
f 21//11 2//11 30//11 58//11
f 50//3 61//3 46//3 18//3
f 14//12 20//12 61//12 50//12
f 20//12 1//12 27//12 61//12
f 51//2 62//2 22//2 16//2
f 19//7 47//7 62//7 51//7
f 47//7 6//7 25//7 62//7
f 52//1 63//1 21//1 15//1
f 18//6 46//6 63//6 52//6
f 46//6 5//6 24//6 63//6
usemtl Material.002
f 64//13 30//13 2//13 24//13
f 60//14 29//14 5//14 27//14
f 59//15 31//15 7//15 32//15
f 57//16 25//16 6//16 33//16
f 31//17 57//17 33//17 7//17
f 4//18 23//18 57//18 31//18
f 23//19 3//19 25//19 57//19
f 26//20 4//20 31//20 59//20
f 32//21 7//21 29//21 60//21
f 29//22 64//22 24//22 5//22
f 7//23 33//23 64//23 29//23
f 33//24 6//24 30//24 64//24
l 37 13
l 38 12
l 39 10
l 42 14
l 45 17
l 9 37
l 8 38
l 11 39
l 8 42
l 11 45
o Cube.001
v 1.000000 9.366035 -0.794612
v 0.999999 9.366035 1.205388
v 1.506782 9.366035 0.205388
v -0.000000 10.569986 0.205387
v 1.000000 6.853118 -0.794612
v 1.000000 6.853118 1.205388
v 1.506782 6.853118 0.205388
v 1.000000 8.109577 -0.794612
v 0.999999 8.109577 1.205388
v -1.000000 8.109577 -0.794613
v -0.000001 8.109576 1.638066
v -1.506782 8.109576 0.205387
v 1.506782 8.109576 0.205388
v 1.000000 8.737806 -0.794612
v 0.999999 8.737806 1.205388
v 1.476364 9.946442 0.790761
v 0.587892 9.946442 -1.233315
v 0.587891 9.946442 1.635539
v 1.476364 9.946442 -0.388537
v 0.000000 9.968011 -0.510952
v 0.753391 9.968011 0.205388
v -0.000001 7.481347 1.638066
v -1.506782 7.481347 0.205387
v 1.506782 7.481347 0.205388
v 1.476364 6.982962 -0.388538
v 0.587891 6.982962 1.635538
v 0.587892 6.982962 -1.233316
v -0.591408 6.982962 1.635538
v 1.476364 6.982962 0.790761
v 1.000000 7.481347 -0.794612
v 0.999999 7.481347 1.205388
v -1.000000 7.481347 -0.794613
v 1.506782 8.737806 0.205388
v 0.587892 8.464702 -1.233315
v 1.476364 8.464702 -0.388538
v 0.587891 8.464702 1.635539
v -1.479880 8.464702 -0.388538
v 1.476364 8.464702 0.790761
v 1.476364 7.723832 0.790761
v -0.591408 7.723832 1.635538
v -1.479880 7.723832 -0.388538
v 0.587892 9.205572 -1.233315
v 0.587892 7.723832 -1.233315
v 1.476364 9.205572 -0.388538
v 0.587891 9.205572 1.635539
v 1.476364 9.205572 0.790761
vn 0.6565 0.0000 0.7543
vn 0.9987 0.0000 -0.0511
vn -0.6460 0.0000 -0.7634
vn 0.9987 0.0000 0.0519
vn -0.9990 -0.0000 -0.0452
vn 0.7289 0.0000 -0.6847
vn 0.6487 0.0000 -0.7610
vn 0.7221 0.0000 0.6918
usemtl Material.001
s off
f 110//25 80//25 66//25 79//25
f 108//26 83//26 67//26 97//26
f 105//27 101//27 74//27 96//27
f 103//25 102//25 73//25 95//25
f 93//25 103//25 95//25 70//25
f 71//28 88//28 103//28 93//28
f 88//28 77//28 102//28 103//28
f 87//29 76//29 101//29 105//29
f 65//30 78//30 106//30 81//30
f 78//30 72//30 98//30 106//30
f 72//30 94//30 107//30 98//30
f 94//30 69//30 91//30 107//30
f 99//26 108//26 97//26 77//26
f 72//31 78//31 108//31 99//31
f 78//31 65//31 83//31 108//31
f 73//32 79//32 109//32 100//32
f 79//32 66//32 82//32 109//32
f 102//25 110//25 79//25 73//25
f 77//28 97//28 110//28 102//28
f 97//28 67//28 80//28 110//28
l 84 68
l 85 67
l 89 71
l 100 75
l 68 85
l 75 86
l 69 89
l 70 90
l 86 104
l 104 92
o Cube
v 1.000000 -0.203422 -0.794613
v 1.000000 -0.203422 1.205387
v -1.000000 -0.203422 1.205387
v -1.000000 -0.203422 -0.794613
v 0.000000 -0.203422 -1.227291
v 0.000000 -0.203422 1.638066
v 1.506782 -0.203422 0.205387
v -1.506782 -0.203422 0.205387
v 0.000000 -0.203422 0.205387
v 1.000000 6.853118 -0.794612
v 1.000000 6.853118 1.205388
v -1.000000 6.853118 1.205387
v -1.000000 6.853118 -0.794613
v 0.000000 6.853118 -1.227291
v -0.000001 6.853118 1.638066
v -1.506782 6.853118 0.205387
v 1.506782 6.853118 0.205388
v 1.476364 -1.338805 0.790760
v -0.591407 -1.338805 -1.233316
v -0.591407 -1.338805 1.635538
v -1.479880 -1.338805 -0.388539
v 0.587892 -1.338805 -1.233316
v 0.587891 -1.338805 1.635538
v -0.000000 3.324848 1.638066
v 0.000000 -0.203422 -0.510952
v 1.476364 -1.338805 -0.388538
v -1.479880 -1.338805 0.790760
v 0.000000 -0.203422 0.921726
v 0.753391 -0.203422 0.205387
v -1.506782 3.324848 0.205387
v 1.506782 3.324848 0.205388
v -0.753391 -0.203422 0.205387
v 1.000000 3.324848 -0.794612
v 1.000000 3.324848 1.205388
v -1.000000 3.324848 1.205387
v -1.000000 3.324848 -0.794613
v 0.000000 3.324848 -1.227291
v 1.476364 6.982962 -0.388538
v -1.479880 6.982962 0.790760
v 0.587891 6.982962 1.635538
v 0.587892 6.982962 -1.233316
v -0.500000 6.853118 -1.010952
v -1.479880 6.982962 -0.388538
v -0.591408 6.982962 1.635538
v 1.476364 6.982962 0.790761
v 1.476364 2.822078 0.790761
v -0.591407 2.822078 1.635538
v -1.479880 2.822078 -0.388539
v 0.587891 2.822078 1.635538
v -1.479880 2.822078 0.790760
v 1.476364 2.822078 -0.388538
v -0.626695 -0.203422 -0.402783
v 0.626696 -0.203422 -0.402782
v 0.626696 -0.203422 0.813557
v 0.587892 2.822078 -1.233316
v -0.591407 2.822078 -1.233316
v -0.626695 -0.203422 0.813557
vn 0.0000 -1.0000 0.0000
vn -0.7318 -0.0000 -0.6815
vn -0.0102 0.0000 -0.9999
vn -0.6239 -0.6212 -0.4742
vn 0.4452 -0.6219 0.6443
vn 0.9987 0.0000 -0.0511
vn -0.9989 -0.0000 0.0459
vn 0.0043 -0.0000 1.0000
vn -0.6460 -0.0000 -0.7634
vn -0.7250 -0.0000 0.6887
vn 0.6565 0.0000 0.7543
vn 0.9987 0.0000 0.0519
vn -0.0043 -0.0000 1.0000
vn -0.9990 -0.0000 -0.0452
vn 0.7221 0.0000 0.6918
vn -0.6538 -0.0000 0.7567
vn 0.6487 0.0000 -0.7610
vn 0.6218 -0.6245 0.4726
vn -0.6225 -0.6234 0.4732
vn -0.4456 -0.6210 0.6448
vn -0.4469 -0.6180 -0.6468
vn 0.7289 -0.0000 -0.6847
vn -0.5732 0.0310 -0.8188
vn -0.2030 0.0312 -0.9787
vn 0.0102 0.0000 -0.9999
vn 0.4465 -0.6189 -0.6462
vn 0.6231 -0.6224 -0.4736
vn 0.0000 -0.0022 1.0000
vn -0.6888 0.0266 0.7244
vn -0.9997 -0.0237 -0.0000
vn 0.0000 -0.0053 1.0000
vn 0.6888 0.0299 -0.7244
vn -0.9996 0.0268 0.0000
usemtl Material.001
s off
f 167//33 130//33 113//33 137//33
f 166//34 129//34 114//34 146//34
f 165//35 132//35 115//35 147//35
f 164//36 133//36 116//36 138//36
f 163//33 139//33 119//33 135//33
f 162//37 142//37 118//37 131//37
f 161//38 148//38 127//38 141//38
f 160//39 149//39 126//39 140//39
f 159//40 150//40 125//40 134//40
f 158//41 153//41 123//41 146//41
f 157//42 154//42 122//42 145//42
f 156//43 155//43 121//43 144//43
f 128//43 156//43 144//43 112//43
f 117//44 141//44 156//44 128//44
f 141//44 127//44 155//44 156//44
f 130//42 157//42 145//42 113//42
f 116//45 134//45 157//45 130//45
f 134//45 125//45 154//45 157//45
f 131//41 158//41 146//41 114//41
f 118//46 140//46 158//46 131//46
f 140//46 126//46 153//46 158//46
f 133//40 159//40 134//40 116//40
f 112//47 144//47 159//47 133//47
f 144//47 121//47 150//47 159//47
f 137//39 160//39 140//39 118//39
f 113//48 145//48 160//48 137//48
f 145//48 122//48 149//48 160//48
f 136//38 161//38 141//38 117//38
f 111//49 143//49 161//49 136//49
f 143//49 120//49 148//49 161//49
f 129//33 162//33 131//33 114//33
f 115//50 135//50 162//50 129//50
f 135//33 119//33 142//33 162//33
f 132//51 163//51 135//51 115//51
f 111//33 136//33 163//33 132//33
f 136//52 117//52 139//52 163//52
f 139//33 164//33 138//33 119//33
f 117//53 128//53 164//53 139//53
f 128//33 112//33 133//33 164//33
f 151//35 165//35 147//35 124//35
f 120//54 143//54 165//54 151//54
f 143//54 111//54 132//54 165//54
f 152//55 166//55 146//55 123//55
f 124//56 147//56 166//56 152//56
f 147//57 115//57 129//57 166//57
f 142//58 167//58 137//58 118//58
f 119//33 138//33 167//33 142//33
f 138//59 116//59 130//59 167//59
f 133//60 116//60 130//60
f 130//61 113//61 137//61
f 137//62 118//62 131//62
f 132//63 115//63 129//63
f 132//64 111//64 136//64
f 128//65 117//65 136//65
