# Blender v2.77 (sub 0) OBJ File: 'archerytower2d.blend'
# www.blender.org
mtllib archerytower2d.mtl
o Cube.002
v -4.748193 8.822020 -1.373620
v -5.448862 6.948771 -1.373620
v -4.108160 6.447296 -2.770416
v -3.467779 7.275432 -3.072598
v -5.388574 7.993884 -1.071438
v -4.956054 6.223368 -2.072018
v -5.215724 7.929232 -2.933697
v -3.104401 8.207176 0.424899
v -3.805069 6.333928 0.424898
v -2.464367 5.832452 -0.971898
v -1.823987 6.660588 -1.274080
v -3.744782 7.379041 0.727081
v -3.312262 5.608525 -0.273500
v -3.926297 8.514599 -0.474361
v -4.626966 6.641350 -0.474361
v -3.286264 6.139874 -1.871157
v -2.645883 6.968010 -2.173339
v -4.566678 7.686462 -0.172179
v -4.134158 5.915947 -1.172759
v -4.337245 8.668308 -0.923990
v -5.037913 6.795060 -0.923991
v -3.697212 6.293585 -2.320787
v -4.050595 6.862004 -3.492208
v -5.973735 7.581334 -1.488606
v -4.928156 6.241656 -2.902217
v -3.637447 7.966565 -3.492208
v -5.560586 8.685894 -1.488606
v -3.056831 7.121721 -2.622969
v -5.302149 7.961558 -2.002568
v -5.718699 6.537351 -2.078597
v -4.341752 7.602332 -3.003148
v -4.558012 8.487590 -2.502857
v -5.085889 7.076301 -2.502858
v -4.155730 7.532751 0.277451
v -3.723210 5.762236 -0.723130
v -1.953960 8.285463 -0.781226
v -3.780178 5.812266 0.042393
v -3.622064 7.960810 0.632385
v -2.144177 6.246520 -1.122989
v -2.989634 5.516572 -0.781227
v -4.035213 6.856250 0.632384
v -3.515349 8.360888 -0.024731
v -4.216018 6.487638 -0.024731
v -2.875316 5.986163 -1.421528
v -2.234935 6.814299 -1.723709
v -4.977626 7.840173 -0.621808
v -4.545106 6.069657 -1.622389
v -3.081335 6.499462 -2.431713
v -4.749439 6.174809 -1.018102
v -4.591325 8.323351 -0.428110
v -3.958895 5.879114 -1.841722
v -5.004474 7.218792 -0.428111
v -4.519843 7.037521 0.102137
v -3.474265 5.697843 -1.311474
v -3.152816 7.785294 -2.961961
v -3.565965 6.680733 -2.961961
v -4.436930 6.968832 -2.712183
v -5.234069 6.356080 -1.548350
v -3.997823 8.142789 -2.712182
v -4.813198 8.447771 -1.862693
v -5.075955 8.504622 -0.958358
v -4.443525 6.060385 -2.371969
v -5.489104 7.400064 -0.958358
v -5.252303 7.273814 -1.862694
vn -0.7157 -0.5064 0.4810
vn 0.2854 -0.7964 -0.5331
vn -0.6688 0.2548 0.6984
vn -0.3807 -0.9241 0.0321
vn 0.2005 -0.8563 -0.4760
vn -0.6718 0.2467 0.6984
vn -0.3196 -0.9470 -0.0316
vn 0.6667 -0.2603 -0.6984
vn 0.6739 -0.2412 -0.6984
vn -0.7363 -0.4226 0.5285
vn -0.2108 0.8498 0.4832
vn -0.9251 -0.0115 -0.3795
vn -0.8301 0.0939 -0.5497
vn 0.0684 0.5035 -0.8613
vn -0.8291 0.1060 -0.5489
vn -0.2788 -0.4247 -0.8613
vn -0.4252 0.3765 -0.8231
vn -0.4529 -0.1882 -0.8715
vn -0.5684 -0.0055 -0.8227
vn -0.6303 0.7648 -0.1334
vn -0.6885 0.4734 -0.5494
vn -0.9775 -0.1634 -0.1334
vn -0.5608 0.0068 -0.8279
usemtl Material.001
s off
f 63//1 24//1 2//1 21//1
f 62//2 25//2 3//2 22//2
f 61//3 27//3 5//3 46//3
f 58//4 30//4 6//4 47//4
f 56//5 48//5 16//5 22//5
f 54//2 51//2 16//2 44//2
f 53//1 52//1 15//1 43//1
f 41//1 53//1 43//1 9//1
f 12//6 34//6 53//6 41//6
f 34//6 18//6 52//6 53//6
f 40//2 54//2 44//2 10//2
f 13//7 35//7 54//7 40//7
f 35//7 19//7 51//7 54//7
f 26//8 55//8 28//8 4//8
f 23//5 56//5 22//5 3//5
f 4//9 28//9 56//9 23//9
f 28//9 17//9 48//9 56//9
f 49//4 58//4 47//4 19//4
f 15//10 21//10 58//10 49//10
f 21//10 2//10 30//10 58//10
f 50//3 61//3 46//3 18//3
f 14//11 20//11 61//11 50//11
f 20//11 1//11 27//11 61//11
f 51//2 62//2 22//2 16//2
f 19//7 47//7 62//7 51//7
f 47//7 6//7 25//7 62//7
f 52//1 63//1 21//1 15//1
f 18//6 46//6 63//6 52//6
f 46//6 5//6 24//6 63//6
usemtl Material.002
f 64//12 30//12 2//12 24//12
f 60//13 29//13 5//13 27//13
f 59//14 31//14 7//14 32//14
f 57//15 25//15 6//15 33//15
f 31//16 57//16 33//16 7//16
f 4//17 23//17 57//17 31//17
f 23//18 3//18 25//18 57//18
f 26//19 4//19 31//19 59//19
f 32//20 7//20 29//20 60//20
f 29//21 64//21 24//21 5//21
f 7//22 33//22 64//22 29//22
f 33//23 6//23 30//23 64//23
l 37 13
l 38 12
l 39 10
l 42 14
l 45 17
l 9 37
l 8 38
l 11 39
l 8 42
l 11 45
o Cube.001
v 1.000000 9.366035 -0.794612
v 0.999999 9.366035 1.205388
v 1.506782 9.366035 0.205388
v -0.000000 10.569986 0.205387
v 1.000000 6.853118 -0.794612
v 1.000000 6.853118 1.205388
v 1.506782 6.853118 0.205388
v 1.000000 8.109577 -0.794612
v 0.999999 8.109577 1.205388
v -1.000000 8.109577 -0.794613
v -0.000001 8.109576 1.638066
v -1.506782 8.109576 0.205387
v 1.506782 8.109576 0.205388
v 1.000000 8.737806 -0.794612
v 0.999999 8.737806 1.205388
v 1.476364 9.946442 0.790761
v 0.587892 9.946442 -1.233315
v 0.587891 9.946442 1.635539
v 1.476364 9.946442 -0.388537
v 0.000000 9.968011 -0.510952
v 0.753391 9.968011 0.205388
v -0.000001 7.481347 1.638066
v -1.506782 7.481347 0.205387
v 1.506782 7.481347 0.205388
v 1.476364 6.982962 -0.388538
v 0.587891 6.982962 1.635538
v 0.587892 6.982962 -1.233316
v -0.591408 6.982962 1.635538
v 1.476364 6.982962 0.790761
v 1.000000 7.481347 -0.794612
v 0.999999 7.481347 1.205388
v -1.000000 7.481347 -0.794613
v 1.506782 8.737806 0.205388
v 0.587892 8.464702 -1.233315
v 1.476364 8.464702 -0.388538
v 0.587891 8.464702 1.635539
v -1.479880 8.464702 -0.388538
v 1.476364 8.464702 0.790761
v 1.476364 7.723832 0.790761
v -0.591408 7.723832 1.635538
v -1.479880 7.723832 -0.388538
v 0.587892 9.205572 -1.233315
v 0.587892 7.723832 -1.233315
v 1.476364 9.205572 -0.388538
v 0.587891 9.205572 1.635539
v 1.476364 9.205572 0.790761
vn 0.6565 0.0000 0.7543
vn 0.9987 0.0000 -0.0511
vn -0.6460 0.0000 -0.7634
vn 0.9987 0.0000 0.0519
vn -0.9990 -0.0000 -0.0452
vn 0.7289 0.0000 -0.6847
vn 0.6487 0.0000 -0.7610
vn 0.7221 0.0000 0.6918
usemtl Material.001
s off
f 110//24 80//24 66//24 79//24
f 108//25 83//25 67//25 97//25
f 105//26 101//26 74//26 96//26
f 103//24 102//24 73//24 95//24
f 93//24 103//24 95//24 70//24
f 71//27 88//27 103//27 93//27
f 88//27 77//27 102//27 103//27
f 87//28 76//28 101//28 105//28
f 65//29 78//29 106//29 81//29
f 78//29 72//29 98//29 106//29
f 72//29 94//29 107//29 98//29
f 94//29 69//29 91//29 107//29
f 99//25 108//25 97//25 77//25
f 72//30 78//30 108//30 99//30
f 78//30 65//30 83//30 108//30
f 73//31 79//31 109//31 100//31
f 79//31 66//31 82//31 109//31
f 102//24 110//24 79//24 73//24
f 77//27 97//27 110//27 102//27
f 97//27 67//27 80//27 110//27
l 84 68
l 85 67
l 89 71
l 100 75
l 68 85
l 75 86
l 69 89
l 70 90
l 86 104
l 104 92
o Cube
v 1.000000 -0.203422 -0.794613
v 1.000000 -0.203422 1.205387
v -1.000000 -0.203422 1.205387
v -1.000000 -0.203422 -0.794613
v 0.000000 -0.203422 -1.227291
v 0.000000 -0.203422 1.638066
v 1.506782 -0.203422 0.205387
v -1.506782 -0.203422 0.205387
v 0.000000 -0.203422 0.205387
v 1.000000 6.853118 -0.794612
v 1.000000 6.853118 1.205388
v -1.000000 6.853118 1.205387
v -1.000000 6.853118 -0.794613
v 0.000000 6.853118 -1.227291
v -0.000001 6.853118 1.638066
v -1.506782 6.853118 0.205387
v 1.506782 6.853118 0.205388
v 1.476364 -1.338805 0.790760
v -0.591407 -1.338805 -1.233316
v -0.591407 -1.338805 1.635538
v -1.479880 -1.338805 -0.388539
v 0.587892 -1.338805 -1.233316
v 0.587891 -1.338805 1.635538
v -0.000000 3.324848 1.638066
v 0.000000 -0.203422 -0.510952
v 1.476364 -1.338805 -0.388538
v -1.479880 -1.338805 0.790760
v 0.000000 -0.203422 0.921726
v 0.753391 -0.203422 0.205387
v -1.506782 3.324848 0.205387
v 1.506782 3.324848 0.205388
v -0.753391 -0.203422 0.205387
v 1.000000 3.324848 -0.794612
v 1.000000 3.324848 1.205388
v -1.000000 3.324848 1.205387
v -1.000000 3.324848 -0.794613
v 0.000000 3.324848 -1.227291
v 1.476364 6.982962 -0.388538
v -1.479880 6.982962 0.790760
v 0.587891 6.982962 1.635538
v 0.587892 6.982962 -1.233316
v -0.500000 6.853118 -1.010952
v -1.479880 6.982962 -0.388538
v -0.591408 6.982962 1.635538
v 1.476364 6.982962 0.790761
v 1.476364 2.822078 0.790761
v -0.591407 2.822078 1.635538
v -1.479880 2.822078 -0.388539
v 0.587891 2.822078 1.635538
v -1.479880 2.822078 0.790760
v 1.476364 2.822078 -0.388538
v -0.626695 -0.203422 -0.402783
v 0.626696 -0.203422 -0.402782
v 0.626696 -0.203422 0.813557
v 0.587892 2.822078 -1.233316
v -0.591407 2.822078 -1.233316
v -0.626695 -0.203422 0.813557
vn 0.0000 -1.0000 0.0000
vn -0.7318 -0.0000 -0.6815
vn -0.0102 0.0000 -0.9999
vn -0.6239 -0.6212 -0.4742
vn 0.4452 -0.6219 0.6443
vn 0.9987 0.0000 -0.0511
vn -0.9989 -0.0000 0.0459
vn 0.0043 -0.0000 1.0000
vn -0.6460 -0.0000 -0.7634
vn -0.7250 -0.0000 0.6887
vn 0.6565 0.0000 0.7543
vn 0.9987 0.0000 0.0519
vn -0.0043 -0.0000 1.0000
vn -0.9990 -0.0000 -0.0452
vn 0.7221 0.0000 0.6918
vn -0.6538 -0.0000 0.7567
vn 0.6487 0.0000 -0.7610
vn 0.6218 -0.6245 0.4726
vn -0.6225 -0.6234 0.4732
vn -0.4456 -0.6210 0.6448
vn -0.4469 -0.6180 -0.6468
vn 0.7289 -0.0000 -0.6847
vn -0.5732 0.0310 -0.8188
vn -0.2030 0.0312 -0.9787
vn 0.0102 0.0000 -0.9999
vn 0.4465 -0.6189 -0.6462
vn 0.6231 -0.6224 -0.4736
vn 0.0000 -0.0022 1.0000
vn -0.6888 0.0266 0.7244
vn -0.9997 -0.0237 -0.0000
vn 0.0000 -0.0053 1.0000
vn 0.6888 0.0299 -0.7244
vn -0.9996 0.0268 0.0000
usemtl Material.001
s off
f 167//32 130//32 113//32 137//32
f 166//33 129//33 114//33 146//33
f 165//34 132//34 115//34 147//34
f 164//35 133//35 116//35 138//35
f 163//32 139//32 119//32 135//32
f 162//36 142//36 118//36 131//36
f 161//37 148//37 127//37 141//37
f 160//38 149//38 126//38 140//38
f 159//39 150//39 125//39 134//39
f 158//40 153//40 123//40 146//40
f 157//41 154//41 122//41 145//41
f 156//42 155//42 121//42 144//42
f 128//42 156//42 144//42 112//42
f 117//43 141//43 156//43 128//43
f 141//43 127//43 155//43 156//43
f 130//41 157//41 145//41 113//41
f 116//44 134//44 157//44 130//44
f 134//44 125//44 154//44 157//44
f 131//40 158//40 146//40 114//40
f 118//45 140//45 158//45 131//45
f 140//45 126//45 153//45 158//45
f 133//39 159//39 134//39 116//39
f 112//46 144//46 159//46 133//46
f 144//46 121//46 150//46 159//46
f 137//38 160//38 140//38 118//38
f 113//47 145//47 160//47 137//47
f 145//47 122//47 149//47 160//47
f 136//37 161//37 141//37 117//37
f 111//48 143//48 161//48 136//48
f 143//48 120//48 148//48 161//48
f 129//32 162//32 131//32 114//32
f 115//49 135//49 162//49 129//49
f 135//32 119//32 142//32 162//32
f 132//50 163//50 135//50 115//50
f 111//32 136//32 163//32 132//32
f 136//51 117//51 139//51 163//51
f 139//32 164//32 138//32 119//32
f 117//52 128//52 164//52 139//52
f 128//32 112//32 133//32 164//32
f 151//34 165//34 147//34 124//34
f 120//53 143//53 165//53 151//53
f 143//53 111//53 132//53 165//53
f 152//54 166//54 146//54 123//54
f 124//55 147//55 166//55 152//55
f 147//56 115//56 129//56 166//56
f 142//57 167//57 137//57 118//57
f 119//32 138//32 167//32 142//32
f 138//58 116//58 130//58 167//58
f 133//59 116//59 130//59
f 130//60 113//60 137//60
f 137//61 118//61 131//61
f 132//62 115//62 129//62
f 132//63 111//63 136//63
f 128//64 117//64 136//64
