# Blender v2.77 (sub 0) OBJ File: 'archerytower.blend'
# www.blender.org
mtllib archerytower.mtl
o Cube
v 1.000000 -0.203422 -0.794613
v 1.000000 -0.203422 1.205387
v -1.000000 -0.203422 1.205387
v -1.000000 -0.203422 -0.794613
v 1.000000 9.366035 -0.794612
v 0.999999 9.366035 1.205388
v -1.000000 9.366035 1.205387
v -1.000000 9.366035 -0.794613
v 0.000000 -0.203422 -1.227291
v 0.000000 -0.203422 1.638066
v 0.000000 9.366035 -1.227291
v -0.000001 9.366035 1.638066
v 1.506782 -0.203422 0.205387
v -1.506782 -0.203422 0.205387
v 1.506782 9.366035 0.205388
v -1.506782 9.366035 0.205387
v -0.000000 10.569986 0.205387
v 0.000000 -0.203422 0.205387
v 1.000000 6.853118 -0.794612
v 1.000000 6.853118 1.205388
v -1.000000 6.853118 1.205387
v -1.000000 6.853118 -0.794613
v 0.000000 6.853118 -1.227291
v -0.000001 6.853118 1.638066
v -1.506782 6.853118 0.205387
v 1.506782 6.853118 0.205388
v 1.000000 8.109577 -0.794612
v 0.999999 8.109577 1.205388
v -1.000000 8.109577 1.205387
v -1.000000 8.109577 -0.794613
v 0.000000 8.109577 -1.227291
v -0.000001 8.109576 1.638066
v -1.506782 8.109576 0.205387
v 1.506782 8.109576 0.205388
v 1.476364 -1.338805 0.790760
v -0.591407 -1.338805 -1.233316
v 1.000000 8.737806 -0.794612
v -0.591407 -1.338805 1.635538
v 0.999999 8.737806 1.205388
v -1.479880 -1.338805 -0.388539
v -1.000000 8.737806 1.205387
v -1.000000 8.737806 -0.794613
v 1.476364 9.946442 0.790761
v -0.591407 9.946442 -1.233316
v -0.591408 9.946442 1.635538
v -1.479880 9.946442 -0.388538
v 0.587892 -1.338805 -1.233316
v 0.587891 -1.338805 1.635538
v 0.587892 9.946442 -1.233315
v 0.587891 9.946442 1.635539
v 0.000000 8.737806 -1.227291
v -0.000000 3.324848 1.638066
v -0.000000 9.968011 0.921727
v 0.000000 -0.203422 -0.510952
v 1.476364 -1.338805 -0.388538
v -1.479880 -1.338805 0.790760
v 1.476364 9.946442 -0.388537
v -1.479880 9.946442 0.790760
v 0.000000 9.968011 -0.510952
v 0.000000 -0.203422 0.921726
v 0.753391 -0.203422 0.205387
v 0.753391 9.968011 0.205388
v -1.506782 3.324848 0.205387
v 1.506782 3.324848 0.205388
v -0.753391 9.968011 0.205387
v -0.753391 -0.203422 0.205387
v 1.000000 3.324848 -0.794612
v 1.000000 3.324848 1.205388
v -1.000000 3.324848 1.205387
v -1.000000 3.324848 -0.794613
v 0.000000 3.324848 -1.227291
v -0.000001 7.481347 1.638066
v -1.506782 7.481347 0.205387
v 1.506782 7.481347 0.205388
v 1.476364 6.982962 -0.388538
v -1.479880 6.982962 0.790760
v 0.587891 6.982962 1.635538
v 0.587892 6.982962 -1.233316
v -0.500000 6.853118 -1.010952
v -1.479880 6.982962 -0.388538
v -0.591408 6.982962 1.635538
v 1.476364 6.982962 0.790761
v 1.000000 7.481347 -0.794612
v 0.999999 7.481347 1.205388
v -1.000000 7.481347 1.205387
v -1.000000 7.481347 -0.794613
v 0.000000 7.481347 -1.227291
v -0.000001 8.737806 1.638066
v -1.506782 8.737806 0.205387
v 1.506782 8.737806 0.205388
v -0.591407 8.464702 -1.233316
v 0.587892 8.464702 -1.233315
v 1.476364 8.464702 -0.388538
v -1.479880 8.464702 0.790760
v 0.587891 8.464702 1.635539
v -1.479880 8.464702 -0.388538
v -0.591408 8.464702 1.635538
v 1.476364 8.464702 0.790761
v 1.476364 7.723832 0.790761
v -0.591408 7.723832 1.635538
v -1.479880 7.723832 -0.388538
v 0.587892 9.205572 -1.233315
v -0.591407 9.205572 -1.233316
v 1.476364 2.822078 0.790761
v -0.591407 2.822078 1.635538
v -1.479880 2.822078 -0.388539
v 0.587892 7.723832 -1.233315
v 0.587891 2.822078 1.635538
v -1.479880 2.822078 0.790760
v 1.476364 2.822078 -0.388538
v -0.626695 -0.203422 -0.402783
v -0.626696 9.667023 -0.402782
v 1.476364 9.205572 -0.388538
v -1.479880 9.205572 0.790760
v 0.626696 9.667023 -0.402782
v 0.626696 -0.203422 -0.402782
v 0.626696 -0.203422 0.813557
v 0.626695 9.667023 0.813557
v 0.587891 9.205572 1.635539
v 0.587892 2.822078 -1.233316
v -0.591407 2.822078 -1.233316
v -1.479880 9.205572 -0.388538
v -0.591408 9.205572 1.635538
v 1.476364 9.205572 0.790761
v -0.626696 9.667023 0.813557
v -0.626695 -0.203422 0.813557
vn 0.0000 -1.0000 0.0000
vn 0.6565 0.0000 0.7543
vn -0.7250 -0.0000 0.6887
vn -0.6460 -0.0000 -0.7634
vn -0.7318 -0.0000 -0.6815
vn -0.0102 0.0000 -0.9999
vn 0.0043 0.0000 1.0000
vn -0.6239 -0.6212 -0.4742
vn -0.9989 0.0000 0.0459
vn 0.9987 0.0000 -0.0511
vn 0.4452 -0.6219 0.6443
vn 0.9987 0.0000 0.0519
vn -0.0043 -0.0000 1.0000
vn -0.9990 -0.0000 -0.0452
vn 0.7289 0.0000 -0.6847
vn 0.0102 0.0000 -0.9999
vn 0.7221 0.0000 0.6918
vn -0.6538 -0.0000 0.7567
vn 0.6487 0.0000 -0.7610
vn 0.6218 -0.6245 0.4726
vn -0.6225 -0.6234 0.4732
vn -0.4456 -0.6210 0.6448
vn -0.4469 -0.6180 -0.6468
vn 0.4465 -0.6189 -0.6462
vn 0.6231 -0.6224 -0.4736
vn 0.0000 -0.0022 1.0000
vn -0.6888 0.0266 0.7244
vn -0.9997 -0.0237 -0.0000
vn 0.0000 -0.0053 1.0000
vn 0.6888 0.0299 -0.7244
vn -0.9996 0.0268 0.0000
vn -0.2028 0.9594 0.1960
vn 0.4955 0.6949 -0.5211
vn -0.1912 0.9612 0.1990
vn -0.4955 0.6949 -0.5211
vn 0.2037 0.9593 -0.1954
vn 0.1916 0.9612 0.1984
vn -0.2043 0.9593 -0.1949
vn 0.1905 0.9611 -0.1999
vn 0.4955 0.6949 0.5211
vn 0.2022 0.9594 0.1965
vn -0.4955 0.6949 0.5211
vn -0.1901 0.9611 -0.2005
vn -0.0041 0.9999 -0.0095
vn -0.3349 0.8739 0.3522
vn -0.3349 0.8739 -0.3522
vn 0.3349 0.8739 -0.3522
vn 0.3349 0.8739 0.3522
vn -0.5732 0.0310 -0.8188
vn -0.2030 0.0312 -0.9787
usemtl Material.001
s off
f 126//1 38//1 3//1 56//1
f 124//2 43//2 6//2 39//2
f 123//3 45//3 7//3 41//3
f 122//4 46//4 8//4 42//4
f 121//5 36//5 4//5 70//5
f 120//6 47//6 9//6 71//6
f 119//7 50//7 12//7 88//7
f 117//8 48//8 10//8 60//8
f 116//1 61//1 18//1 54//1
f 114//9 58//9 16//9 89//9
f 113//10 57//10 15//10 90//10
f 111//11 66//11 14//11 40//11
f 107//6 78//6 23//6 87//6
f 103//5 91//5 30//5 42//5
f 102//6 92//6 31//6 51//6
f 101//4 96//4 30//4 86//4
f 100//3 97//3 29//3 85//3
f 99//2 98//2 28//2 84//2
f 82//2 99//2 84//2 20//2
f 26//12 74//12 99//12 82//12
f 74//12 34//12 98//12 99//12
f 81//3 100//3 85//3 21//3
f 24//13 72//13 100//13 81//13
f 72//13 32//13 97//13 100//13
f 80//4 101//4 86//4 22//4
f 25//14 73//14 101//14 80//14
f 73//14 33//14 96//14 101//14
f 49//6 102//6 51//6 11//6
f 5//15 37//15 102//15 49//15
f 37//15 27//15 92//15 102//15
f 44//5 103//5 42//5 8//5
f 11//16 51//16 103//16 44//16
f 51//16 31//16 91//16 103//16
f 35//2 104//2 68//2 2//2
f 13//12 64//12 104//12 35//12
f 38//3 105//3 69//3 3//3
f 10//13 52//13 105//13 38//13
f 40//4 106//4 70//4 4//4
f 14//14 63//14 106//14 40//14
f 92//6 107//6 87//6 31//6
f 27//15 83//15 107//15 92//15
f 83//15 19//15 78//15 107//15
f 48//7 108//7 52//7 10//7
f 2//17 68//17 108//17 48//17
f 56//9 109//9 63//9 14//9
f 3//18 69//18 109//18 56//18
f 55//10 110//10 64//10 13//10
f 1//19 67//19 110//19 55//19
f 36//1 111//1 40//1 4//1
f 9//20 54//20 111//20 36//20
f 54//1 18//1 66//1 111//1
f 93//10 113//10 90//10 34//10
f 27//19 37//19 113//19 93//19
f 37//19 5//19 57//19 113//19
f 94//9 114//9 89//9 33//9
f 29//18 41//18 114//18 94//18
f 41//18 7//18 58//18 114//18
f 47//21 116//21 54//21 9//21
f 1//1 55//1 116//1 47//1
f 55//22 13//22 61//22 116//22
f 61//1 117//1 60//1 18//1
f 13//23 35//23 117//23 61//23
f 35//1 2//1 48//1 117//1
f 95//7 119//7 88//7 32//7
f 28//17 39//17 119//17 95//17
f 39//17 6//17 50//17 119//17
f 67//15 1//15 47//15 120//15
f 71//16 9//16 36//16 121//16
f 96//4 122//4 42//4 30//4
f 33//14 89//14 122//14 96//14
f 89//14 16//14 46//14 122//14
f 97//3 123//3 41//3 29//3
f 32//13 88//13 123//13 97//13
f 88//13 12//13 45//13 123//13
f 98//2 124//2 39//2 28//2
f 34//12 90//12 124//12 98//12
f 90//12 15//12 43//12 124//12
f 66//24 126//24 56//24 14//24
f 18//1 60//1 126//1 66//1
f 60//25 10//25 38//25 126//25
f 48//26 10//26 38//26
f 38//27 3//27 56//27
f 56//28 14//28 40//28
f 47//29 9//29 36//29
f 47//30 1//30 55//30
f 35//31 13//31 55//31
usemtl Material.002
f 118//32 53//32 12//32 50//32
f 115//33 59//33 17//33 62//33
f 112//34 46//34 16//34 65//34
f 59//35 112//35 65//35 17//35
f 11//36 44//36 112//36 59//36
f 57//37 115//37 62//37 15//37
f 49//38 11//38 59//38 115//38
f 15//39 62//39 118//39 43//39
f 62//40 17//40 53//40 118//40
f 53//41 125//41 45//41 12//41
f 17//42 65//42 125//42 53//42
f 65//43 16//43 58//43 125//43
usemtl Material.003
f 26//44 75//44 19//44 78//44 23//44 79//44 22//44 80//44 25//44 76//44 21//44 81//44 24//44 77//44 20//44 82//44
usemtl Material.004
f 125//45 58//45 7//45 45//45
f 110//10 75//10 26//10 64//10
f 109//9 76//9 25//9 63//9
f 108//7 77//7 24//7 52//7
f 106//4 80//4 22//4 70//4
f 105//3 81//3 21//3 69//3
f 104//2 82//2 20//2 68//2
f 64//12 26//12 82//12 104//12
f 52//13 24//13 81//13 105//13
f 63//14 25//14 80//14 106//14
f 68//17 20//17 77//17 108//17
f 69//18 21//18 76//18 109//18
f 67//19 19//19 75//19 110//19
f 44//46 8//46 46//46 112//46
f 5//47 49//47 115//47 57//47
f 43//48 118//48 50//48 6//48
f 78//6 120//6 71//6 23//6
f 19//15 67//15 120//15 78//15
f 79//49 121//49 70//49 22//49
f 23//50 71//50 121//50 79//50
