# Blender v2.77 (sub 0) OBJ File: 'archerytower1d.blend'
# www.blender.org
mtllib archerytower1d.mtl
o Cube.002
v -0.014717299 0.4921922 -0.096866645
v -0.20383205 0.3317783 -0.096866645
v -0.08902228 0.19642721 -0.2700596
v 0.030372849 0.2473525 -0.3075279
v -0.13411257 0.44126704 -0.05939822
v -0.19434708 0.22345535 -0.18346305
v -0.119310655 0.42381704 -0.29030517
v 0.12604715 0.32624245 0.12613697
v -0.063067466 0.16582854 0.12613697
v 0.05174229 0.030477403 -0.047055963
v 0.17113742 0.08140264 -0.08452439
v 0.006652013 0.27531728 0.16360542
v -0.05358263 0.057505485 0.039540447
v 0.055664927 0.40921733 0.014635106
v -0.13344969 0.24880353 0.014635106
v -0.018640064 0.11345233 -0.15855771
v 0.1007552 0.16437757 -0.19602613
v -0.06373021 0.35829216 0.05210353
v -0.123964846 0.14048041 -0.071961306
v 0.020473752 0.45070472 -0.04111571
v -0.16864087 0.2902909 -0.041115828
v -0.05383111 0.15493989 -0.21430863
v -0.057715315 0.23783903 -0.35955656
v -0.22240147 0.4319903 -0.11112409
v -0.19022134 0.22374813 -0.28640184
v 0.053795982 0.33242688 -0.35955656
v -0.11089029 0.52657825 -0.11112409
v 0.06556403 0.205865 -0.25177708
v -0.12671167 0.43254203 -0.17485175
v -0.25791886 0.30355772 -0.18427879
v -0.044468902 0.33558482 -0.2989166
v -0.014351644 0.4444906 -0.23688403
v -0.15682893 0.32363614 -0.23688415
v -0.028539162 0.3168048 0.10785446
v -0.088773675 0.09899304 -0.016210489
v 0.2553166 0.2651551 -0.02341398
v -0.09191541 0.10785343 0.07870894
v 0.055113155 0.3308739 0.15186378
v 0.11143992 0.05593993 -0.06579018
v -0.024218008 0.028043782 -0.023414107
v -0.05639814 0.23628594 0.15186378
v 0.090856105 0.36772984 0.07038604
v -0.09825852 0.20731603 0.07038604
v 0.016551113 0.07196478 -0.10280677
v 0.13594638 0.12289007 -0.1402752
v -0.09892138 0.39977953 -0.003647279
v -0.15915604 0.18196785 -0.12771223
v 0.025286289 0.13998678 -0.22806269
v -0.17491715 0.20570572 -0.052784927
v -0.027888572 0.42872602 0.0203699
v -0.10721961 0.1258959 -0.15490797
v -0.13939987 0.33413818 0.020369777
v -0.09789894 0.285212 0.086116776
v -0.06571881 0.0769699 -0.08916097
v 0.095296785 0.28350094 -0.29380956
v -0.016214512 0.18891278 -0.29380956
v -0.09307685 0.27276298 -0.262839
v -0.21641794 0.25463167 -0.11853192
v 0.025440535 0.3732937 -0.26283887
v -0.044383224 0.45561004 -0.15750822
v -0.06938937 0.4776521 -0.045377094
v -0.14872055 0.17482202 -0.22065485
v -0.18090068 0.38306424 -0.045377094
v -0.16290063 0.35507935 -0.15750822
vn -0.8718 -0.0931 0.4810
vn -0.1392 -0.8345 -0.5331
vn -0.4597 0.5486 0.6984
vn -0.7831 -0.6211 0.0321
vn -0.2425 -0.8453 -0.4760
vn -0.4662 0.5430 0.6984
vn -0.7409 -0.6709 -0.0316
vn 0.4551 -0.5524 -0.6984
vn -0.2425 -0.8454 -0.4760
vn 0.4707 -0.5392 -0.6984
vn -0.8489 -0.0099 0.5285
vn 0.2304 0.8447 0.4832
vn 0.3052 0.4062 -0.8613
vn -0.6722 0.4968 -0.5489
vn -0.4505 -0.2349 -0.8613
vn -0.1876 0.5360 -0.8231
vn -0.1773 0.9751 -0.1334
vn -0.3702 0.7491 -0.5494
vn -0.9331 0.3340 -0.1334
vn -0.4863 0.2794 -0.8279
vn -0.8133 0.4411 -0.3795
vn -0.6789 0.4868 -0.5497
vn -0.4871 0.0566 -0.8715
vn -0.4989 0.2724 -0.8227
usemtl Material.001
s off
f 63//1 24//1 2//1 21//1
f 62//2 25//2 3//2 22//2
f 61//3 27//3 5//3 46//3
f 58//4 30//4 6//4 47//4
f 56//5 48//5 16//5 22//5
f 54//2 51//2 16//2 44//2
f 53//1 52//1 15//1 43//1
f 41//1 53//1 43//1 9//1
f 12//6 34//6 53//6 41//6
f 34//6 18//6 52//6 53//6
f 40//2 54//2 44//2 10//2
f 13//7 35//7 54//7 40//7
f 35//7 19//7 51//7 54//7
f 26//8 55//8 28//8 4//8
f 23//9 56//9 22//9 3//9
f 4//10 28//10 56//10 23//10
f 28//10 17//10 48//10 56//10
f 49//4 58//4 47//4 19//4
f 15//11 21//11 58//11 49//11
f 21//11 2//11 30//11 58//11
f 50//3 61//3 46//3 18//3
f 14//12 20//12 61//12 50//12
f 20//12 1//12 27//12 61//12
f 51//2 62//2 22//2 16//2
f 19//7 47//7 62//7 51//7
f 47//7 6//7 25//7 62//7
f 52//1 63//1 21//1 15//1
f 18//6 46//6 63//6 52//6
f 46//6 5//6 24//6 63//6
usemtl Material.002
f 59//13 31//13 7//13 32//13
f 57//14 25//14 6//14 33//14
f 31//15 57//15 33//15 7//15
f 4//16 23//16 57//16 31//16
f 32//17 7//17 29//17 60//17
f 29//18 64//18 24//18 5//18
f 7//19 33//19 64//19 29//19
f 33//20 6//20 30//20 64//20
usemtl Material.004
f 64//21 30//21 2//21 24//21
f 60//22 29//22 5//22 27//22
f 23//23 3//23 25//23 57//23
f 26//24 4//24 31//24 59//24
l 37 13
l 38 12
l 39 10
l 42 14
l 45 17
l 9 37
l 8 38
l 11 39
l 8 42
l 11 45
o Cube.001
v 0.12274683 0.35889477 -0.063450806
v 0.122746706 0.35889477 0.18453504
v 0.18558422 0.35889477 0.060542118
v -0.001246088 0.50817615 0.060541995
v 0.12274683 0.047310777 -0.063450806
v 0.12274683 0.047310777 0.18453504
v 0.18558422 0.047310777 0.060542118
v 0.12274683 0.20310283 -0.063450806
v 0.122746706 0.20310283 0.18453504
v -0.12523901 0.20310283 -0.06345092
v -0.0012462119 0.20310271 0.23818405
v -0.18807639 0.20310271 0.060541995
v 0.18558422 0.20310271 0.060542118
v 0.12274683 0.2809988 -0.063450806
v 0.122746706 0.2809988 0.18453504
v 0.1818126 0.43086103 0.13312423
v 0.07164836 0.43086103 -0.11784686
v 0.07164823 0.43086103 0.23787072
v 0.1818126 0.43086103 -0.013100374
v -0.001246088 0.43353546 -0.028278967
v 0.09216907 0.43353546 0.060542118
v -0.0012462119 0.12520674 0.23818405
v -0.18807639 0.12520674 0.060541995
v 0.18558422 0.12520674 0.060542118
v 0.1818126 0.063410535 -0.013100499
v 0.07164823 0.063410535 0.23787059
v 0.07164836 0.063410535 -0.11784698
v -0.07457649 0.063410535 0.23787059
v 0.1818126 0.063410535 0.13312423
v 0.12274683 0.12520674 -0.063450806
v 0.122746706 0.12520674 0.18453504
v -0.12523901 0.12520674 -0.06345092
v 0.18558422 0.2809988 0.060542118
v 0.07164836 0.24713574 -0.11784686
v 0.1818126 0.24713574 -0.013100499
v 0.07164823 0.24713574 0.23787072
v -0.18474072 0.24713574 -0.013100499
v 0.1818126 0.24713574 0.13312423
v 0.1818126 0.15527317 0.13312423
v -0.07457649 0.15527317 0.23787059
v -0.18474072 0.15527317 -0.013100499
v 0.07164836 0.33899844 -0.11784686
v 0.07164836 0.15527317 -0.11784686
v 0.1818126 0.33899844 -0.013100499
v 0.07164823 0.33899844 0.23787072
v 0.1818126 0.33899844 0.13312423
vn 0.6565 0.0000 0.7543
vn 0.9987 0.0000 -0.0511
vn -0.6460 0.0000 -0.7634
vn 0.9987 0.0000 0.0519
vn -0.9990 -0.0000 -0.0452
vn 0.7289 0.0000 -0.6847
vn 0.6487 0.0000 -0.7610
vn 0.7221 0.0000 0.6918
usemtl Material.001
s off
f 110//25 80//25 66//25 79//25
f 108//26 83//26 67//26 97//26
f 105//27 101//27 74//27 96//27
f 103//25 102//25 73//25 95//25
f 93//25 103//25 95//25 70//25
f 71//28 88//28 103//28 93//28
f 88//28 77//28 102//28 103//28
f 87//29 76//29 101//29 105//29
f 65//30 78//30 106//30 81//30
f 78//30 72//30 98//30 106//30
f 72//30 94//30 107//30 98//30
f 94//30 69//30 91//30 107//30
f 99//26 108//26 97//26 77//26
f 72//31 78//31 108//31 99//31
f 78//31 65//31 83//31 108//31
f 73//32 79//32 109//32 100//32
f 79//32 66//32 82//32 109//32
f 102//25 110//25 79//25 73//25
f 77//28 97//28 110//28 102//28
f 97//28 67//28 80//28 110//28
l 84 68
l 85 67
l 89 71
l 100 75
l 68 85
l 75 86
l 69 89
l 70 90
l 86 104
l 104 92
o Cube
v 0.12274683 -0.8276502 -0.06345092
v 0.12274683 -0.8276502 0.18453492
v -0.12523901 -0.8276502 0.18453492
v -0.12523901 -0.8276502 -0.06345092
v -0.001246088 -0.8276502 -0.117099926
v -0.001246088 -0.8276502 0.23818405
v 0.18558422 -0.8276502 0.060541995
v -0.18807639 -0.8276502 0.060541995
v -0.001246088 -0.8276502 0.060541995
v 0.12274683 0.047310777 -0.063450806
v 0.12274683 0.047310777 0.18453504
v -0.12523901 0.047310777 0.18453492
v -0.12523901 0.047310777 -0.06345092
v -0.001246088 0.047310777 -0.117099926
v -0.0012462119 0.047310777 0.23818405
v -0.18807639 0.047310777 0.060541995
v 0.18558422 0.047310777 0.060542118
v 0.1818126 -0.9684297 0.1331241
v -0.07457636 -0.9684297 -0.11784698
v -0.07457636 -0.9684297 0.23787059
v -0.18474072 -0.9684297 -0.013100621
v 0.07164836 -0.9684297 -0.11784698
v 0.07164823 -0.9684297 0.23787059
v -0.001246088 -0.3901697 0.23818405
v -0.001246088 -0.8276502 -0.028278967
v 0.1818126 -0.9684297 -0.013100499
v -0.18474072 -0.9684297 0.1331241
v -0.001246088 -0.8276502 0.14936297
v 0.09216907 -0.8276502 0.060541995
v -0.18807639 -0.3901697 0.060541995
v 0.18558422 -0.3901697 0.060542118
v -0.094661236 -0.8276502 0.060541995
v 0.12274683 -0.3901697 -0.063450806
v 0.12274683 -0.3901697 0.18453504
v -0.12523901 -0.3901697 0.18453492
v -0.12523901 -0.3901697 -0.06345092
v -0.001246088 -0.3901697 -0.117099926
v 0.1818126 0.063410535 -0.013100499
v -0.18474072 0.063410535 0.1331241
v 0.07164823 0.063410535 0.23787059
v 0.07164836 0.063410535 -0.11784698
v -0.06324255 0.047310777 -0.09027542
v -0.18474072 0.063410535 -0.013100499
v -0.07457649 0.063410535 0.23787059
v 0.1818126 0.063410535 0.13312423
v 0.1818126 -0.45250964 0.13312423
v -0.07457636 -0.45250964 0.23787059
v -0.18474072 -0.45250964 -0.013100621
v 0.07164823 -0.45250964 0.23787059
v -0.18474072 -0.45250964 0.1331241
v 0.1818126 -0.45250964 -0.013100499
v -0.07895182 -0.8276502 -0.014866779
v 0.07645978 -0.8276502 -0.014866654
v 0.07645978 -0.8276502 0.13595077
v 0.07164836 -0.45250964 -0.11784698
v -0.07457636 -0.45250964 -0.11784698
v -0.07895182 -0.8276502 0.13595077
vn 0.0000 -1.0000 0.0000
vn -0.7318 -0.0000 -0.6815
vn -0.0102 0.0000 -0.9999
vn -0.6239 -0.6212 -0.4742
vn 0.4452 -0.6219 0.6443
vn 0.6565 -0.0000 0.7543
vn 0.9987 0.0000 0.0519
vn -0.7250 -0.0000 0.6887
vn -0.0043 -0.0000 1.0000
vn -0.6460 0.0000 -0.7634
vn -0.9990 -0.0000 -0.0452
vn 0.0043 -0.0000 1.0000
vn 0.7221 0.0000 0.6918
vn -0.9989 -0.0000 0.0459
vn -0.6538 -0.0000 0.7567
vn 0.9987 -0.0000 -0.0511
vn 0.6487 0.0000 -0.7610
vn 0.6218 -0.6245 0.4726
vn -0.6225 -0.6234 0.4732
vn -0.4456 -0.6210 0.6448
vn -0.4469 -0.6180 -0.6468
vn 0.7289 0.0000 -0.6847
vn 0.0102 0.0000 -0.9999
vn 0.4465 -0.6189 -0.6462
vn 0.6231 -0.6224 -0.4736
vn 0.0000 -0.0022 1.0000
vn -0.6888 0.0266 0.7244
vn -0.9997 -0.0237 -0.0000
vn 0.0000 -0.0053 1.0000
vn 0.6888 0.0299 -0.7244
vn -0.9996 0.0268 0.0000
vn -0.5732 0.0310 -0.8188
vn -0.2030 0.0312 -0.9787
usemtl Material.001
s off
f 167//33 130//33 113//33 137//33
f 166//34 129//34 114//34 146//34
f 165//35 132//35 115//35 147//35
f 164//36 133//36 116//36 138//36
f 163//33 139//33 119//33 135//33
f 162//37 142//37 118//37 131//37
f 128//38 156//38 144//38 112//38
f 117//39 141//39 156//39 128//39
f 130//40 157//40 145//40 113//40
f 116//41 134//41 157//41 130//41
f 131//42 158//42 146//42 114//42
f 118//43 140//43 158//43 131//43
f 133//44 159//44 134//44 116//44
f 112//45 144//45 159//45 133//45
f 137//46 160//46 140//46 118//46
f 113//47 145//47 160//47 137//47
f 136//48 161//48 141//48 117//48
f 111//49 143//49 161//49 136//49
f 129//33 162//33 131//33 114//33
f 115//50 135//50 162//50 129//50
f 135//33 119//33 142//33 162//33
f 132//51 163//51 135//51 115//51
f 111//33 136//33 163//33 132//33
f 136//52 117//52 139//52 163//52
f 139//33 164//33 138//33 119//33
f 117//53 128//53 164//53 139//53
f 128//33 112//33 133//33 164//33
f 143//54 111//54 132//54 165//54
f 147//55 115//55 129//55 166//55
f 142//56 167//56 137//56 118//56
f 119//33 138//33 167//33 142//33
f 138//57 116//57 130//57 167//57
f 133//58 116//58 130//58
f 130//59 113//59 137//59
f 137//60 118//60 131//60
f 132//61 115//61 129//61
f 132//62 111//62 136//62
f 128//63 117//63 136//63
usemtl Material.004
f 161//48 148//48 127//48 141//48
f 160//46 149//46 126//46 140//46
f 159//44 150//44 125//44 134//44
f 158//42 153//42 123//42 146//42
f 157//40 154//40 122//40 145//40
f 156//38 155//38 121//38 144//38
f 141//39 127//39 155//39 156//39
f 134//41 125//41 154//41 157//41
f 140//43 126//43 153//43 158//43
f 144//45 121//45 150//45 159//45
f 145//47 122//47 149//47 160//47
f 143//49 120//49 148//49 161//49
f 151//35 165//35 147//35 124//35
f 120//54 143//54 165//54 151//54
f 152//64 166//64 146//64 123//64
f 124//65 147//65 166//65 152//65
