# Blender v2.77 (sub 0) OBJ File: 'wall1d.blend'
# www.blender.org
mtllib wall1d.mtl
o Cube
v 5.270052 0.526997 -0.151653
v 5.270052 0.258907 0.046991
v -5.270052 0.258908 0.046991
v -5.270050 0.526997 -0.151653
v 5.270054 4.500645 5.211173
v 5.270049 4.232555 5.409817
v -5.270054 4.232555 5.409817
v -5.270051 4.500645 5.211173
vn 0.0000 -0.5953 -0.8035
vn -0.0000 0.5953 0.8035
vn 1.0000 -0.0000 0.0000
vn -0.0000 -0.8035 0.5953
vn -1.0000 0.0000 -0.0000
vn 0.0000 0.8035 -0.5953
usemtl Material.001
s off
f 1//1 2//1 3//1 4//1
f 5//2 8//2 7//2 6//2
f 1//3 5//3 6//3 2//3
f 2//4 6//4 7//4 3//4
f 3//5 7//5 8//5 4//5
f 5//6 1//6 4//6 8//6
o Cube.001
v -3.711664 4.482265 5.186368
v -3.711664 4.214175 5.385011
v -5.002367 4.214175 5.385011
v -5.002367 4.482265 5.186368
v -3.711664 5.475348 6.526632
v -3.711665 5.207259 6.725276
v -5.002367 5.207259 6.725276
v -5.002367 5.475348 6.526632
vn 0.0000 -0.5953 -0.8035
vn 0.0000 0.5953 0.8035
vn 1.0000 -0.0000 0.0000
vn 0.0000 -0.8035 0.5953
vn -1.0000 0.0000 -0.0000
vn 0.0000 0.8035 -0.5953
usemtl Material.001
s off
f 9//7 10//7 11//7 12//7
f 13//8 16//8 15//8 14//8
f 9//9 13//9 14//9 10//9
f 10//10 14//10 15//10 11//10
f 11//11 15//11 16//11 12//11
f 13//12 9//12 12//12 16//12
o Cube.002
v -1.503073 4.482265 5.186368
v -1.503073 4.214175 5.385011
v -2.793776 4.214175 5.385011
v -2.793776 4.482265 5.186368
v -1.503073 5.475348 6.526632
v -1.503074 5.207259 6.725276
v -2.793776 5.207259 6.725276
v -2.793776 5.475348 6.526632
vn 0.0000 -0.5953 -0.8035
vn 0.0000 0.5953 0.8035
vn 1.0000 -0.0000 0.0000
vn 0.0000 -0.8035 0.5953
vn -1.0000 -0.0000 -0.0000
vn 0.0000 0.8035 -0.5953
usemtl Material.001
s off
f 17//13 18//13 19//13 20//13
f 21//14 24//14 23//14 22//14
f 17//15 21//15 22//15 18//15
f 18//16 22//16 23//16 19//16
f 19//17 23//17 24//17 20//17
f 21//18 17//18 20//18 24//18
o Cube.003
v 0.724906 4.482265 5.186368
v 0.724906 4.214175 5.385011
v -0.565797 4.214175 5.385011
v -0.565796 4.482265 5.186368
v 0.724907 5.475348 6.526632
v 0.724906 5.207259 6.725276
v -0.565797 5.207259 6.725276
v -0.565796 5.475348 6.526632
vn 0.0000 -0.5953 -0.8035
vn 0.0000 0.5953 0.8035
vn 1.0000 -0.0000 0.0000
vn 0.0000 -0.8035 0.5953
vn -1.0000 0.0000 -0.0000
vn 0.0000 0.8035 -0.5953
usemtl Material.001
s off
f 25//19 26//19 27//19 28//19
f 29//20 32//20 31//20 30//20
f 25//21 29//21 30//21 26//21
f 26//22 30//22 31//22 27//22
f 27//23 31//23 32//23 28//23
f 29//24 25//24 28//24 32//24
o Cube.004
v 2.900628 4.482265 5.186368
v 2.900628 4.214175 5.385011
v 1.609925 4.214175 5.385011
v 1.609925 4.482265 5.186368
v 2.900628 5.475348 6.526632
v 2.900627 5.207259 6.725276
v 1.609925 5.207259 6.725276
v 1.609925 5.475348 6.526632
vn 0.0000 -0.5953 -0.8035
vn 0.0000 0.5953 0.8035
vn 1.0000 -0.0000 0.0000
vn 0.0000 -0.8035 0.5953
vn -1.0000 0.0000 -0.0000
vn 0.0000 0.8035 -0.5953
usemtl Material.001
s off
f 33//25 34//25 35//25 36//25
f 37//26 40//26 39//26 38//26
f 33//27 37//27 38//27 34//27
f 34//28 38//28 39//28 35//28
f 35//29 39//29 40//29 36//29
f 37//30 33//30 36//30 40//30
o Cube.005
v 5.078854 4.482265 5.186368
v 5.078854 4.214175 5.385011
v 3.788151 4.214175 5.385011
v 3.788151 4.482265 5.186368
v 5.078854 5.475348 6.526632
v 5.078853 5.207259 6.725276
v 3.788151 5.207259 6.725276
v 3.788151 5.475348 6.526632
vn 0.0000 -0.5953 -0.8035
vn 0.0000 0.5953 0.8035
vn 1.0000 0.0000 0.0000
vn 0.0000 -0.8035 0.5953
vn -1.0000 0.0000 -0.0000
vn 0.0000 0.8035 -0.5953
usemtl Material.001
s off
f 41//31 42//31 43//31 44//31
f 45//32 48//32 47//32 46//32
f 41//33 45//33 46//33 42//33
f 42//34 46//34 47//34 43//34
f 43//35 47//35 48//35 44//35
f 45//36 41//36 44//36 48//36
